<svg height='300px' width='300px'  fill="#bbb" xmlns:dc="http://purl.org/dc/elements/1.1/" xmlns:cc="http://creativecommons.org/ns#" xmlns:rdf="http://www.w3.org/1999/02/22-rdf-syntax-ns#" xmlns:svg="http://www.w3.org/2000/svg" xmlns="http://www.w3.org/2000/svg" xmlns:sodipodi="http://sodipodi.sourceforge.net/DTD/sodipodi-0.dtd" xmlns:inkscape="http://www.inkscape.org/namespaces/inkscape" version="1.1" x="0px" y="0px" viewBox="0 0 100 100"><g transform="translate(0,-952.36218)"><path style="font-size:medium;font-style:normal;font-variant:normal;font-weight:normal;font-stretch:normal;text-indent:0;text-align:start;text-decoration:none;line-height:normal;letter-spacing:normal;word-spacing:normal;text-transform:none;direction:ltr;block-progression:tb;writing-mode:lr-tb;text-anchor:start;baseline-shift:baseline;opacity:1;color:#bbb;fill:#bbb;fill-opacity:1;stroke:none;stroke-width:6;marker:none;visibility:visible;display:inline;overflow:visible;enable-background:accumulate;font-family:Sans;-inkscape-font-specification:Sans" d="M 20.375 15 C 11.833923 15 5 22.26674 5 31 C 5 39.73326 11.83392 47 20.375 47 L 92 47 L 92 41 C 86.845057 41 82.625 36.67262 82.625 31 C 82.625 25.32738 86.845054 21 92 21 L 92 15 L 20.375 15 z M 20.375 21 L 80.125 21 C 77.983194 23.7603 76.625 27.21972 76.625 31 C 76.625 34.78913 77.974128 38.23673 80.125 41 L 20.375 41 C 15.220052 41 11 36.67262 11 31 C 11 25.32738 15.220049 21 20.375 21 z M 8 53 L 8 59 C 13.154964 59 17.375 63.3273 17.375 69 C 17.375 74.6727 13.154964 79 8 79 L 8 85 L 79.625 85 C 88.16606 85 95 77.7333 95 69 C 95 60.2667 88.16606 53 79.625 53 L 8 53 z M 19.875 59 L 79.625 59 C 84.779968 59 89 63.3273 89 69 C 89 74.6727 84.779968 79 79.625 79 L 19.875 79 C 22.025875 76.2367 23.375 72.7892 23.375 69 C 23.375 65.2197 22.016808 61.7603 19.875 59 z " transform="translate(0,952.36218)"></path></g></svg>
