<svg height="300px" width="300px" fill="#000000" xmlns:dc="http://purl.org/dc/elements/1.1/" xmlns:cc="http://creativecommons.org/ns#" xmlns:rdf="http://www.w3.org/1999/02/22-rdf-syntax-ns#" xmlns:svg="http://www.w3.org/2000/svg" xmlns="http://www.w3.org/2000/svg" xmlns:sodipodi="http://sodipodi.sourceforge.net/DTD/sodipodi-0.dtd" xmlns:inkscape="http://www.inkscape.org/namespaces/inkscape" version="1.1" x="0px" y="0px" viewBox="0 0 100 100"><g transform="translate(0,-952.36218)"><path style="text-indent:0;text-transform:none;direction:ltr;block-progression:tb;baseline-shift:baseline;color:#000000;enable-background:accumulate;" d="M 26,6 C 14.977995,6 6,14.97799 6,26 6,37.022 14.977995,46 26,46 37.022005,46 46,37.022 46,26 46,14.97799 37.022005,6 26,6 z M 74,6 C 62.977995,6 54,14.97799 54,26 54,37.022 62.977995,46 74,46 85.022005,46 94,37.022 94,26 94,14.97799 85.022005,6 74,6 z m -48,4 c 8.860245,0 16,7.13975 16,16 0,8.86024 -7.139755,16 -16,16 -8.860245,0 -16,-7.13976 -16,-16 0,-8.86025 7.139755,-16 16,-16 z m 48,0 c 8.860245,0 16,7.13975 16,16 0,8.86024 -7.139755,16 -16,16 C 65.139755,42 58,34.86024 58,26 58,17.13975 65.139755,10 74,10 z M 25.78125,16.96875 C 24.798498,17.076745 23.978736,18.01156 24,19 l 0,5 c -1.719931,-2e-5 -3.482912,0 -5.1875,0 -1.047341,0.04888 -1.955743,1.046438 -1.906649,2.093769 C 16.954944,27.1411 17.952679,28.049303 19,28 l 5,0 0,5 c -0.01491,1.056602 0.943293,2.028412 2,2.028412 1.056707,0 2.014906,-0.97181 2,-2.028412 l 0,-5 5,0 c 1.056602,0.01491 2.028412,-0.943293 2.028412,-2 0,-1.056707 -0.97181,-2.014906 -2.028412,-2 l -5,0 0,-5 c 0.02444,-1.134551 -1.09076,-2.155508 -2.21875,-2.03125 z m 43,2 c -0.757273,0.0737 -1.448391,0.61854 -1.696824,1.337688 -0.248433,0.719148 -0.04098,1.574404 0.509324,2.099812 L 71.1875,26 67.59375,29.5625 c -0.76833,0.730738 -0.789309,2.101984 -0.04369,2.855885 0.745616,0.7539 2.11701,0.748074 2.856193,-0.01214 L 74,28.8125 l 3.59375,3.59375 c 0.739183,0.760209 2.110577,0.766035 2.856193,0.01214 0.745616,-0.753901 0.724637,-2.125147 -0.04369,-2.855885 L 76.8125,26 80.40625,22.40625 c 0.615144,-0.57774 0.798922,-1.565931 0.432613,-2.326196 -0.36631,-0.760266 -1.253679,-1.232358 -2.088863,-1.111304 -0.436739,0.0631 -0.850501,0.275568 -1.15625,0.59375 L 74,23.15625 70.40625,19.5625 c -0.416545,-0.426795 -1.031424,-0.651462 -1.625,-0.59375 z M 27.625,54 c -0.955367,0.153144 -1.720128,1.086859 -1.682064,2.053674 C 25.981,57.020488 26.8168,57.89119 27.78125,57.96875 35.753026,58.86515 42,65.7575 42,74 42,82.8602 34.860241,90 26,90 17.13976,90 10,82.8602 10,74 10,67.0259 14.461956,61.0735 20.65625,58.875 21.646179,58.531388 22.234236,57.318054 21.890624,56.328125 21.547012,55.338196 20.333679,54.750138 19.34375,55.09375 11.578748,57.84965 6,65.3159 6,74 6,85.022 14.977992,94 26,94 37.022009,94 46,85.022 46,74 46,63.7355 38.214236,55.124 28.21875,54 28.0223,53.970516 27.82145,53.970516 27.625,54 z M 74,54 C 62.977995,54 54,62.978 54,74 54,85.022 62.977995,94 74,94 85.022005,94 94,85.022 94,74 94,62.978 85.022005,54 74,54 z m 0,4 c 8.860245,0 16,7.1398 16,16 0,8.8602 -7.139755,16 -16,16 -8.860245,0 -16,-7.1398 -16,-16 0,-8.8602 7.139755,-16 16,-16 z m -7.1875,10 c -1.047341,0.04888 -1.955743,1.046438 -1.906649,2.093769 C 64.954944,71.1411 65.952679,72.049303 67,72 l 14,0 c 1.056602,0.01491 2.028412,-0.943293 2.028412,-2 0,-1.056707 -0.97181,-2.014906 -2.028412,-2 -4.722795,-3e-6 -9.478897,0 -14.1875,0 z m -48,4 c -1.047341,0.04888 -1.955743,1.046438 -1.906649,2.093769 C 16.954944,75.1411 17.952679,76.049303 19,76 l 14,0 c 1.056602,0.01491 2.028412,-0.943293 2.028412,-2 0,-1.056707 -0.97181,-2.014906 -2.028412,-2 -4.722795,-3e-6 -9.478897,0 -14.1875,0 z m 48,4 c -1.047341,0.04888 -1.955743,1.046438 -1.906649,2.093769 C 64.954944,79.1411 65.952679,80.049303 67,80 l 14,0 c 1.056602,0.01491 2.028412,-0.943293 2.028412,-2 0,-1.056707 -0.97181,-2.014906 -2.028412,-2 -4.722795,-3e-6 -9.478897,0 -14.1875,0 z" transform="translate(0,952.36218)" fill="#000000" fill-opacity="1" stroke="none" marker="none" visibility="visible" display="inline" overflow="visible"/></g></svg>